<?xml version="1.0" standalone="no"?>
<!DOCTYPE svg PUBLIC "-//W3C//DTD SVG 20010904//EN"
 "http://www.w3.org/TR/2001/REC-SVG-20010904/DTD/svg10.dtd">
<svg version="1.0" xmlns="http://www.w3.org/2000/svg"
 width="600.000000pt" height="600.000000pt" viewBox="0 0 600.000000 600.000000"
 preserveAspectRatio="xMidYMid meet">
<metadata>
Created by potrace 1.14, written by Peter Selinger 2001-2017
</metadata>
<g transform="translate(0.000000,600.000000) scale(0.100000,-0.100000)"
fill="#000000" stroke="none">
<path d="M0 3000 l0 -3000 3000 0 3000 0 0 3000 0 3000 -3000 0 -3000 0 0
-3000z m3200 769 c321 -487 340 -519 340 -554 0 -26 -42 -97 -202 -339 -112
-168 -206 -306 -211 -306 -14 0 -78 110 -71 123 5 6 84 129 178 272 93 143
169 265 169 270 0 6 -89 144 -197 308 l-197 299 -194 -300 c-107 -165 -195
-305 -195 -311 0 -6 16 -36 36 -66 l37 -55 -39 -60 c-22 -33 -41 -60 -44 -60
-3 0 -33 44 -68 98 -55 85 -63 102 -60 137 3 33 50 110 263 432 143 216 262
393 265 393 3 0 88 -127 190 -281z m-67 -480 l118 -181 -38 -59 c-21 -32 -40
-59 -43 -59 -3 0 -39 52 -80 115 -41 63 -77 115 -80 115 -6 0 -679 -1026 -687
-1047 -4 -10 34 -13 190 -13 l195 0 92 140 c50 77 93 140 95 140 2 0 19 -23
39 -50 l36 -50 -91 -136 c-72 -108 -98 -139 -126 -150 -28 -12 -81 -14 -273
-12 -224 3 -240 4 -267 24 -33 25 -53 78 -43 114 8 26 830 1290 840 1290 3 0
58 -82 123 -181z m-66 -754 c115 -176 217 -332 227 -347 l18 -28 195 0 c158 0
194 3 190 13 -3 8 -86 138 -186 289 -100 152 -181 279 -181 282 0 10 72 116
79 116 10 0 433 -653 441 -680 10 -36 -10 -89 -43 -114 -27 -20 -43 -21 -267
-24 -191 -2 -245 0 -273 12 -28 11 -57 46 -143 173 -59 87 -164 238 -231 337
l-124 178 38 59 c21 32 41 58 45 56 3 -1 100 -146 215 -322z"/>
</g>
</svg>
